<?xml version="1.0" ?>
<svg data-name="Layer 1" id="Layer_1" viewBox="0 0 64 64" xmlns="http://www.w3.org/2000/svg">
    <defs>
        <style>.cls-1{fill:#72d849;}.cls-2{fill:#b13fff;}.cls-3{fill:#002849;}</style>
    </defs>
    <title/>
    <path class="cls-1"
          d="M53.64,33.25a19,19,0,0,1-2.1,4L59,40.12A20,20,0,0,0,47.38,14.43C53.82,16.85,56.63,25.28,53.64,33.25Z"/>
    <path class="cls-2"
          d="M47.38,14.43C40.93,12,33.27,16.52,30.28,24.49a19,19,0,0,0-1.08,4.43l11.17,4.19L51.54,37.3a19,19,0,0,0,2.1-4C56.63,25.28,53.82,16.85,47.38,14.43Z"/>
    <path class="cls-1" d="M29.2,28.92a19,19,0,0,1,1.08-4.43c3-8,10.65-12.48,17.09-10.06A20,20,0,0,0,21.69,26.1Z"/>
    <path class="cls-3"
          d="M29.34,24.14a20.13,20.13,0,0,0-.95,3.41l-5.39-2a18.82,18.82,0,0,1,3.27-5.08,1,1,0,1,0-1.49-1.34,20.86,20.86,0,0,0-4,6.65A1,1,0,0,0,21.34,27L39.08,33.7,32,52.58a5.76,5.76,0,0,0,10.79,4,1,1,0,1,0-1.87-.7,3.76,3.76,0,0,1-7-2.64L41,34.4l4.9,1.84a1,1,0,0,0,.7-1.87l-16.25-6.1a18,18,0,0,1,.91-3.42C34,17.4,41.1,13.15,47,15.37S55.49,25.46,52.7,32.9a18,18,0,0,1-1.57,3.17l-1.07-.4a1,1,0,0,0-.7,1.87l9.34,3.5A1,1,0,0,0,60,40.47,21,21,0,0,0,48.65,13.89l.37-1a1,1,0,1,0-1.87-.7l-.36,1A21,21,0,0,0,28.25,16a1,1,0,0,0,1.15,1.63,19,19,0,0,1,8.32-3.3A18.13,18.13,0,0,0,29.34,24.14Zm25.37-3.38a19,19,0,0,1,3.72,18.06L53,36.8a20.1,20.1,0,0,0,1.53-3.19A18.16,18.16,0,0,0,54.72,20.76Z"/>
    <path class="cls-3"
          d="M16.73,15.36H8.63a1,1,0,1,0,0,2h5.7a1,1,0,0,0-.27.68,2.68,2.68,0,1,0,2.68-2.68Zm0,3.35a.68.68,0,0,1-.68-.68,1,1,0,0,0-.27-.68h.95a.68.68,0,0,1,0,1.35Z"/>
    <path class="cls-3"
          d="M24.16,8.58H5.45a1,1,0,0,0,0,2H24.16a3.47,3.47,0,1,0-3.47-3.47,1,1,0,0,0,2,0,1.47,1.47,0,1,1,1.47,1.47Z"/>
    <path class="cls-3"
          d="M2.68,13a1,1,0,0,0,1,1H22.4a1.47,1.47,0,1,1-1.48,1.47,1,1,0,0,0-2,0A3.47,3.47,0,1,0,22.4,12H3.68A1,1,0,0,0,2.68,13Z"/>
</svg>