<?xml version="1.0" ?>
<svg viewBox="0 0 64 64" xmlns="http://www.w3.org/2000/svg">
    <title/>
    <g data-name="Line 2 color" id="Line_2_color">
        <path d="M29,36a1,1,0,0,1-1-1V12a1,1,0,0,1,2,0V35A1,1,0,0,1,29,36Z" style="fill:#eb4559"/>
        <rect height="2" style="fill:#eb4559" width="8" x="39" y="18"/>
        <rect height="2" style="fill:#eb4559" width="17" x="17" y="18"/>
        <path d="M35,52H33V40a4,4,0,0,0-8,0V52H23V40a6,6,0,0,1,12,0Z" style="fill:#eb4559"/>
        <path d="M37,53H21a1,1,0,0,1,0-2H37a1,1,0,0,1,0,2Z" style="fill:#00bcd4"/>
        <path d="M35,26H34a1,1,0,0,1-1-1V13a1,1,0,0,1,1-1h1a5.0059,5.0059,0,0,1,5,5v4A5.0059,5.0059,0,0,1,35,26Zm0-2h0Zm0-10V24a3.0033,3.0033,0,0,0,3-3V17A3.0033,3.0033,0,0,0,35,14Z"
              style="fill:#00bcd4"/>
        <path d="M49.5,26A3.5042,3.5042,0,0,1,46,22.5v-7a3.5,3.5,0,0,1,7,0v7A3.5042,3.5042,0,0,1,49.5,26Zm0-12A1.5017,1.5017,0,0,0,48,15.5v7a1.5,1.5,0,0,0,3,0v-7A1.5017,1.5017,0,0,0,49.5,14Z"
              style="fill:#00bcd4"/>
        <path d="M14.5,26A3.5042,3.5042,0,0,1,11,22.5v-7a3.5,3.5,0,0,1,7,0v7A3.5042,3.5042,0,0,1,14.5,26Zm0-12A1.5017,1.5017,0,0,0,13,15.5v7a1.5,1.5,0,0,0,3,0v-7A1.5017,1.5017,0,0,0,14.5,14Z"
              style="fill:#00bcd4"/>
    </g>
</svg>