<?xml version="1.0" ?>
<svg viewBox="0 0 64 64" xmlns="http://www.w3.org/2000/svg">
    <title/>
    <g data-name="Line 2 color" id="Line_2_color">
        <path d="M26,37.2974V17a6,6,0,0,0-12,0V37.2974a9,9,0,1,0,12,0ZM20,51a6.9965,6.9965,0,0,1-4.374-12.46A1,1,0,0,0,16,37.76V35a1,1,0,0,0,0-2V30a1,1,0,0,0,0-2V25a1,1,0,0,0,0-2V20a1,1,0,0,0,0-2V17a4,4,0,0,1,8,0V37.76a1,1,0,0,0,.374.78A6.9965,6.9965,0,0,1,20,51Z"
              style="fill:#00bcd4"/>
        <path d="M20,47a3,3,0,1,1,3-3A3.0033,3.0033,0,0,1,20,47Zm0-4a1,1,0,1,0,1,1A1.0013,1.0013,0,0,0,20,43Z"
              style="fill:#eb4559"/>
        <path d="M20,43a1,1,0,0,1-1-1V29a1,1,0,0,1,2,0V42A1,1,0,0,1,20,43Z" style="fill:#eb4559"/>
        <path d="M32,17a3,3,0,1,1,3-3A3.0033,3.0033,0,0,1,32,17Zm0-4a1,1,0,1,0,1,1A1.0013,1.0013,0,0,0,32,13Z"
              style="fill:#eb4559"/>
        <path d="M40,33a3.0033,3.0033,0,0,1-3-3V14a3,3,0,0,1,6,0v2.501l5.2021-3.9A3,3,0,1,1,51.8,17.4019L45.6665,22.001,51.8008,26.6A3,3,0,1,1,48.2017,31.4L43,27.5005V30A3.0033,3.0033,0,0,1,40,33Zm0-20a1.0013,1.0013,0,0,0-1,1V30a1,1,0,0,0,2,0V25.501a1,1,0,0,1,1.6-.8L49.4014,29.8a1,1,0,1,0,1.1992-1.6l-7.2012-5.3989a1.0008,1.0008,0,0,1,0-1.6006l7.2012-5.3994a.9995.9995,0,1,0-1.1987-1.6L42.6,19.3008a1,1,0,0,1-1.6-.8V14A1.0013,1.0013,0,0,0,40,13Z"
              style="fill:#eb4559"/>
    </g>
</svg>